<svg width="25" height="16" viewBox="0 0 25 16" fill="none" xmlns="http://www.w3.org/2000/svg">
<g clip-path="url(#clip0_54_38)">
<path d="M7.017 -6.56324e-05C7.67202 -0.0122272 8.32611 0.0549277 8.965 0.199934C9.50292 0.317376 10.0136 0.535915 10.47 0.843934C10.8915 1.15023 11.225 1.562 11.437 2.03793C11.6807 2.62317 11.7982 3.2532 11.782 3.88693C11.8097 4.58278 11.632 5.27139 11.271 5.86693C10.8913 6.42941 10.3664 6.87863 9.752 7.16693C10.5857 7.39171 11.3119 7.90657 11.8 8.61893C12.2685 9.37373 12.504 10.25 12.477 11.1379C12.4925 11.8459 12.3461 12.5481 12.049 13.1909C11.7744 13.7517 11.3723 14.2404 10.875 14.6179C10.363 14.9913 9.78675 15.2675 9.175 15.4329C8.5406 15.6084 7.88523 15.6966 7.227 15.6949H0V-6.56324e-05H7.017ZM6.6 6.34793C7.11466 6.36915 7.62128 6.21508 8.037 5.91093C8.23609 5.73369 8.39097 5.51234 8.48925 5.26456C8.58752 5.01679 8.62648 4.74945 8.603 4.48393C8.61632 4.17382 8.55457 3.86507 8.423 3.58393C8.31139 3.3601 8.13784 3.17301 7.923 3.04493C7.70539 2.90395 7.46091 2.80963 7.205 2.76793C6.92733 2.71415 6.64478 2.68968 6.362 2.69493H3.274V6.36193H6.6V6.34793ZM6.78 13.0299C7.09124 13.0341 7.40185 13.0006 7.705 12.9299C7.98204 12.8688 8.24478 12.755 8.479 12.5949C8.70846 12.4349 8.89384 12.2196 9.018 11.9689C9.16196 11.6493 9.2281 11.3001 9.211 10.9499C9.24221 10.6309 9.19995 10.3089 9.08745 10.0086C8.97496 9.70841 8.79521 9.43794 8.562 9.21793C8.0677 8.85386 7.46194 8.67351 6.849 8.70793H3.274V13.0299H6.78Z" fill="white"/>
<path d="M17.1399 12.9719C17.3969 13.2101 17.6996 13.3936 18.0297 13.5112C18.3597 13.6287 18.7103 13.678 19.0599 13.6559C19.6143 13.6699 20.1579 13.5013 20.607 13.1759C20.9723 12.9384 21.2489 12.5869 21.3939 12.1759H24.0049C23.7268 13.3458 23.0474 14.3811 22.0849 15.1019C21.1617 15.7148 20.0706 16.0251 18.9629 15.9899C18.1724 16.0003 17.3879 15.8517 16.6559 15.5529C15.9938 15.2768 15.4 14.8594 14.9159 14.3299C14.4337 13.7751 14.0633 13.1323 13.8249 12.4369C13.5574 11.6596 13.4265 10.8419 13.4379 10.0199C13.4331 9.21175 13.5684 8.40886 13.8379 7.64693C14.2001 6.57505 14.8924 5.64543 15.8157 4.99147C16.7389 4.33752 17.8456 3.99285 18.9769 4.00693C19.8122 3.98948 20.6381 4.18495 21.3769 4.57493C22.0448 4.94114 22.6209 5.45399 23.0619 6.07493C23.5131 6.72649 23.8365 7.45777 24.0149 8.22993C24.2106 9.0591 24.2804 9.913 24.2219 10.7629H16.4449C16.3819 11.5615 16.6311 12.3533 17.1399 12.9719ZM20.552 7.00293C20.3343 6.78526 20.0726 6.61675 19.7843 6.50876C19.4961 6.40078 19.188 6.35582 18.8809 6.37693C18.4736 6.3614 18.0691 6.45166 17.7069 6.63893C17.4199 6.79698 17.1664 7.00964 16.9609 7.26493C16.7788 7.50429 16.6432 7.77564 16.5609 8.06493C16.4869 8.30621 16.4406 8.55516 16.4229 8.80694H21.2399C21.198 8.15059 20.9589 7.52218 20.5539 7.00393L20.552 7.00293Z" fill="white"/>
<path d="M21.838 1.04785H15.802V2.59085H21.838V1.04785Z" fill="white"/>
</g>
<defs>
<clipPath id="clip0_54_38">
<rect width="24.247" height="15.985" fill="white"/>
</clipPath>
</defs>
</svg>
