<svg width="20" height="20" viewBox="0 0 20 20" fill="none" xmlns="http://www.w3.org/2000/svg">
<g clip-path="url(#clip0_1976_72)">
<mask id="mask0_1976_72" style="mask-type:luminance" maskUnits="userSpaceOnUse" x="0" y="0" width="20" height="20">
<path d="M18 0H2C0.89543 0 0 0.89543 0 2V18C0 19.1046 0.89543 20 2 20H18C19.1046 20 20 19.1046 20 18V2C20 0.89543 19.1046 0 18 0Z" fill="white"/>
</mask>
<g mask="url(#mask0_1976_72)">
<path d="M18 0H2C0.89543 0 0 0.89543 0 2V18C0 19.1046 0.89543 20 2 20H18C19.1046 20 20 19.1046 20 18V2C20 0.89543 19.1046 0 18 0Z" fill="#FF2E67"/>
<path d="M8.93791 14.8327H5.19367V11.3809V11.3566L5.17521 11.3408L4.59111 10.8402L5.17521 10.3396L5.19367 10.3238V10.2995V6.85709H7.83583H8.93791H9.04941H9.10227V6.80423V4.00013V3.94727H9.04941H7.83583H7.78297V4.00013V5.63685H5.14081H4.82534H3.92519H3.87233V5.68971V10.1936H2.99988H2.94702V10.2464V11.3609V11.4138H2.99988H3.87233V15.9907V16.0436H3.92519H4.75073V16.053H4.80359H8.93791H8.99077V16.0001V14.8856V14.8327H8.93791Z" fill="white" stroke="white" stroke-width="0.35"/>
<path d="M17.0527 10.2464V10.1936H16.9999H16.1274V5.68971V5.63685H16.0746H15.1744H14.8589H12.2168V4.00013V3.94727H12.1639H10.9503H10.8975V4.00013V6.80423V6.85709H10.9503H11.0618H12.1639H14.8061V10.2995V10.3238L14.8245 10.3396L15.408 10.8402L14.8245 11.3408L14.8061 11.3566V11.3809V14.8327H11.0618H11.009V14.8856V16.0001V16.053H11.0618H15.1962H15.249V16.0436H16.0746H16.1274V15.9907V11.4138H16.9999H17.0527V11.3609V10.2464Z" fill="white" stroke="white" stroke-width="0.35"/>
</g>
</g>
<defs>
<clipPath id="clip0_1976_72">
<rect width="20" height="20" fill="white"/>
</clipPath>
</defs>
</svg>
