<svg width="20" height="20" viewBox="0 0 20 20" fill="none" xmlns="http://www.w3.org/2000/svg">
<g clip-path="url(#clip0_7_14)">
<mask id="mask0_7_14" style="mask-type:luminance" maskUnits="userSpaceOnUse" x="0" y="0" width="20" height="20">
<path d="M20 0H0V20H20V0Z" fill="white"/>
</mask>
<g mask="url(#mask0_7_14)">
<mask id="mask1_7_14" style="mask-type:luminance" maskUnits="userSpaceOnUse" x="0" y="0" width="20" height="20">
<path d="M18 0H2C0.89543 0 0 0.89543 0 2V18C0 19.1046 0.89543 20 2 20H18C19.1046 20 20 19.1046 20 18V2C20 0.89543 19.1046 0 18 0Z" fill="white"/>
</mask>
<g mask="url(#mask1_7_14)">
<path d="M8.9362 14.8327H5.19196V11.3809V11.3566L5.1735 11.3408L4.5894 10.8402L5.1735 10.3396L5.19196 10.3238V10.2995V6.85709H7.83412H8.9362H9.0477H9.10056V6.80423V4.00013V3.94727H9.0477H7.83412H7.78126V4.00013V5.63685H5.1391H4.82363H3.92348H3.87062V5.68971V10.1936H2.99817H2.94531V10.2464V11.3609V11.4138H2.99817H3.87062V15.9907V16.0436H3.92348H4.74902V16.053H4.80188H8.9362H8.98906V16.0001V14.8856V14.8327H8.9362Z" fill="white" stroke="white" stroke-width="0.35"/>
<path d="M17.0536 10.2464V10.1936H17.0008H16.1283V5.68971V5.63685H16.0755H15.1753H14.8598H12.2177V4.00013V3.94727H12.1648H10.9512H10.8984V4.00013V6.80423V6.85709H10.9512H11.0627H12.1648H14.807V10.2995V10.3238L14.8254 10.3396L15.4089 10.8402L14.8254 11.3408L14.807 11.3566V11.3809V14.8327H11.0627H11.0099V14.8856V16.0001V16.053H11.0627H15.1971H15.2499V16.0436H16.0755H16.1283V15.9907V11.4138H17.0008H17.0536V11.3609V10.2464Z" fill="white" stroke="white" stroke-width="0.35"/>
</g>
</g>
</g>
<defs>
<clipPath id="clip0_7_14">
<rect width="20" height="20" fill="white"/>
</clipPath>
</defs>
</svg>
