<svg width="24" height="24" viewBox="0 0 24 24" fill="none" xmlns="http://www.w3.org/2000/svg">
<path d="M17 2H7C4.23858 2 2 4.23858 2 7V17C2 19.7614 4.23858 22 7 22H17C19.7614 22 22 19.7614 22 17V7C22 4.23858 19.7614 2 17 2Z" stroke="#09090B" stroke-width="2" stroke-linecap="round" stroke-linejoin="round"/>
<path d="M15.9998 11.3703C16.1232 12.2025 15.981 13.0525 15.5935 13.7993C15.206 14.5461 14.5929 15.1517 13.8414 15.5299C13.0899 15.9082 12.2382 16.0399 11.4075 15.9062C10.5769 15.7725 9.80947 15.3803 9.21455 14.7854C8.61963 14.1905 8.22744 13.4231 8.09378 12.5925C7.96011 11.7618 8.09178 10.9102 8.47004 10.1586C8.8483 9.40715 9.4539 8.79404 10.2007 8.40654C10.9475 8.01904 11.7975 7.87689 12.6298 8.0003C13.4787 8.12618 14.2646 8.52176 14.8714 9.1286C15.4783 9.73545 15.8739 10.5213 15.9998 11.3703Z" stroke="#09090B" stroke-width="2" stroke-linecap="round" stroke-linejoin="round"/>
<path d="M17.5 6.5H17.51" stroke="#09090B" stroke-width="2" stroke-linecap="round" stroke-linejoin="round"/>
</svg>
