<svg width="180" height="180" viewBox="0 0 180 180" fill="none" xmlns="http://www.w3.org/2000/svg">
<rect width="180" height="180" rx="12" fill="#FACC15"/>
<path d="M17 90.4557C17 80 19.5696 72.2321 24.7089 67.1519C28.0169 63.8439 31.7089 61.6582 35.7848 60.5949C39.8608 59.5316 45.2068 59 51.8228 59C57.9662 59 62.8987 59.443 66.6202 60.3291C70.4008 61.1561 73.5021 62.9578 75.924 65.7342C77.9325 68.038 79.4979 70.8439 80.6203 74.1519C81.4647 76.4741 82.0526 78.766 82.384 81.0278C82.5972 82.4828 81.4202 83.7215 79.9497 83.7215V83.7215C78.6239 83.7215 77.5294 82.7062 77.2989 81.4006C76.9609 79.4868 76.414 77.5431 75.6582 75.5696C74.654 72.7342 73.0591 70.3122 70.8734 68.3038C68.6878 66.2363 65.9114 65.2025 62.5443 65.2025C59.4135 65.2025 56.8143 66.5907 54.7468 69.3671C52.9747 71.789 51.7046 75.0084 50.9367 79.0253C50.2278 82.5696 49.8734 86.3797 49.8734 90.4557C49.8734 97.1308 50.7004 102.713 52.3544 107.203C52.6388 107.948 52.9437 108.645 53.269 109.294C56.241 115.217 62.5443 110.425 62.5443 103.797V103.253C62.5443 96.6257 67.9169 91.2532 74.5443 91.2532H77.6582C84.2856 91.2532 89.6582 96.6257 89.6582 103.253V109.557C89.6582 116.184 84.2861 121.554 77.659 121.627C72.3768 121.685 66.7479 121.78 60.7722 121.911L51.8228 122C45.3249 122 40.038 121.38 35.962 120.139C31.9451 118.84 28.4895 116.743 25.5949 113.848C19.865 108.118 17 100.321 17 90.4557Z" fill="black"/>
<path d="M141.403 81.7722C148.433 83.6624 153.69 86.173 157.175 89.3038C160.66 92.3755 162.403 96.3924 162.403 101.354C162.403 105.312 161.162 108.857 158.681 111.987C156.2 115.118 152.538 117.57 147.694 119.342C142.909 121.114 137.091 122 130.238 122C122.146 122 114.998 120.966 108.795 118.899C103.661 117.121 99.4544 115.034 96.1766 112.638C95.1142 111.861 94.9521 110.372 95.7304 109.311V109.311C96.5753 108.159 98.2041 107.943 99.3949 108.733C102.07 110.507 105.233 112.065 108.884 113.405C113.551 115.118 118.572 115.975 123.947 115.975C127.433 115.975 130.061 115.473 131.833 114.468C133.665 113.464 134.58 112.046 134.58 110.215C134.58 107.025 131.42 104.544 125.099 102.772L113.58 99.4051C107.319 97.5148 102.475 94.8861 99.0486 91.519C95.6815 88.1519 93.9979 84.1646 93.9979 79.557C93.9979 75.7173 95.2089 72.2321 97.6308 69.1013C100.053 65.9705 103.568 63.519 108.175 61.7468C112.842 59.9156 118.424 59 124.922 59C131.125 59 136.825 59.7089 142.023 61.1266C146.093 62.224 149.579 63.4985 152.48 64.9499C153.797 65.6088 154.138 67.2876 153.28 68.4845V68.4845C152.523 69.5392 151.094 69.8422 149.928 69.2717C147.595 68.1302 144.931 67.1283 141.935 66.2658C138.095 65.1435 134.049 64.5823 129.795 64.5823C126.074 64.5823 123.209 65.173 121.2 66.3544C119.251 67.4768 118.276 69.0422 118.276 71.0506C118.276 72.5865 119.015 73.9451 120.492 75.1266C121.968 76.2489 124.774 77.3713 128.909 78.4937L141.403 81.7722Z" fill="black"/>
</svg>
