<svg width="180" height="180" viewBox="0 0 180 180" fill="none" xmlns="http://www.w3.org/2000/svg">
<g clip-path="url(#clip0_11_38)">
<path d="M168 0H12C5.37258 0 0 5.37258 0 12V168C0 174.627 5.37258 180 12 180H168C174.627 180 180 174.627 180 168V12C180 5.37258 174.627 0 168 0Z" fill="#09090B"/>
<path d="M17 90.4557C17 80 19.5696 72.2321 24.7089 67.1519C28.0169 63.8439 31.7089 61.6582 35.7848 60.5949C39.8608 59.5316 45.2068 59 51.8228 59C57.9662 59 62.8987 59.443 66.6202 60.3291C70.4008 61.1561 73.5021 62.9578 75.924 65.7342C77.9325 68.038 79.4979 70.8439 80.6203 74.1519C81.4647 76.4741 82.0526 78.766 82.384 81.0278C82.5972 82.4828 81.4202 83.7215 79.9497 83.7215C78.6239 83.7215 77.5294 82.7062 77.2989 81.4006C76.9609 79.4868 76.414 77.5431 75.6582 75.5696C74.654 72.7342 73.0591 70.3122 70.8734 68.3038C68.6878 66.2363 65.9114 65.2025 62.5443 65.2025C59.4135 65.2025 56.8143 66.5907 54.7468 69.3671C52.9747 71.789 51.7046 75.0084 50.9367 79.0253C50.2278 82.5696 49.8734 86.3797 49.8734 90.4557C49.8734 97.1308 50.7004 102.713 52.3544 107.203C52.6388 107.948 52.9437 108.645 53.269 109.294C56.241 115.217 62.5443 110.425 62.5443 103.797V103.253C62.5443 96.6257 67.9169 91.2532 74.5443 91.2532H77.6582C84.2856 91.2532 89.6582 96.6257 89.6582 103.253V109.557C89.6582 116.184 84.2861 121.554 77.659 121.627C72.3768 121.685 66.7479 121.78 60.7722 121.911L51.8228 122C45.3249 122 40.038 121.38 35.962 120.139C31.9451 118.84 28.4895 116.743 25.5949 113.848C19.865 108.118 17 100.321 17 90.4557Z" fill="white"/>
<path d="M141.405 81.7722C148.435 83.6624 153.692 86.173 157.177 89.3038C160.662 92.3755 162.405 96.3924 162.405 101.354C162.405 105.312 161.164 108.857 158.683 111.987C156.202 115.118 152.54 117.57 147.696 119.342C142.911 121.114 137.093 122 130.24 122C122.148 122 115 120.966 108.797 118.899C103.663 117.121 99.4565 115.034 96.1787 112.638C95.1163 111.861 94.9542 110.372 95.7325 109.311C96.5774 108.159 98.2062 107.943 99.397 108.733C102.072 110.507 105.235 112.065 108.886 113.405C113.553 115.118 118.574 115.975 123.949 115.975C127.435 115.975 130.063 115.473 131.835 114.468C133.667 113.464 134.582 112.046 134.582 110.215C134.582 107.025 131.422 104.544 125.101 102.772L113.582 99.4051C107.321 97.5148 102.477 94.8861 99.0507 91.519C95.6836 88.1519 94 84.1646 94 79.557C94 75.7173 95.211 72.2321 97.6329 69.1013C100.055 65.9705 103.57 63.519 108.177 61.7468C112.844 59.9156 118.426 59 124.924 59C131.127 59 136.827 59.7089 142.025 61.1266C146.095 62.224 149.581 63.4985 152.482 64.9499C153.799 65.6088 154.14 67.2876 153.282 68.4845C152.525 69.5392 151.096 69.8422 149.93 69.2717C147.597 68.1302 144.933 67.1283 141.937 66.2658C138.097 65.1435 134.051 64.5823 129.797 64.5823C126.076 64.5823 123.211 65.173 121.202 66.3544C119.253 67.4768 118.278 69.0422 118.278 71.0506C118.278 72.5865 119.017 73.9451 120.494 75.1266C121.97 76.2489 124.776 77.3713 128.911 78.4937L141.405 81.7722Z" fill="white"/>
</g>
<defs>
<clipPath id="clip0_11_38">
<rect width="180" height="180" fill="white"/>
</clipPath>
</defs>
</svg>
