<svg width="23" height="22" viewBox="0 0 23 22" fill="none" xmlns="http://www.w3.org/2000/svg">
<path d="M22.2431 10.5046C22.1384 7.69499 20.9301 5.0336 18.8706 3.07618C16.8111 1.11877 14.0596 0.0166645 11.1906 3.00753e-06H11.1364C9.2043 -0.00140293 7.3052 0.490142 5.62587 1.42627C3.94652 2.3624 2.54482 3.71085 1.55869 5.33895C0.572558 6.96705 0.035978 8.8187 0.00174802 10.7117C-0.032492 12.6047 0.436808 14.4738 1.36345 16.1351L0.379498 21.9049C0.377898 21.9167 0.378888 21.9288 0.382398 21.9402C0.385918 21.9516 0.391868 21.9622 0.399878 21.9712C0.407888 21.9802 0.417758 21.9874 0.428838 21.9924C0.439918 21.9974 0.451948 22 0.464128 22H0.481058L6.30465 20.7306C7.8093 21.4385 9.4571 21.8059 11.1262 21.8054C11.2323 21.8054 11.3384 21.8054 11.4444 21.8054C12.9127 21.7643 14.3581 21.4387 15.6972 20.8474C17.0363 20.256 18.2427 19.4106 19.2467 18.36C20.2506 17.3093 21.0323 16.0742 21.5466 14.726C22.0609 13.3777 22.2976 11.943 22.2431 10.5046ZM11.3891 19.909C11.3011 19.909 11.2131 19.909 11.1262 19.909C9.6511 19.9108 8.1971 19.5649 6.8869 18.9006L6.589 18.748L2.63966 19.6624L3.36859 15.747L3.19933 15.4661C2.39093 14.1155 1.95551 12.5818 1.93594 11.0161C1.91636 9.4504 2.31333 7.90671 3.08772 6.53707C3.86212 5.16743 4.98724 4.0191 6.3523 3.20516C7.7173 2.39123 9.2751 1.93977 10.8723 1.89526C10.9611 1.89526 11.0503 1.89526 11.1398 1.89526C13.5513 1.90226 15.8635 2.83733 17.5782 4.49898C19.2928 6.16064 20.2728 8.41588 20.3068 10.7788C20.3408 13.1417 19.4263 15.4232 17.7601 17.1316C16.094 18.84 13.8097 19.8386 11.3993 19.9123L11.3891 19.909Z" fill="black"/>
<path d="M7.2585 5.63954C7.1211 5.64217 6.9855 5.67181 6.8599 5.7267C6.7343 5.78159 6.6212 5.86062 6.5274 5.95911C6.26218 6.22559 5.52083 6.86693 5.47796 8.21373C5.43508 9.56053 6.3953 10.8929 6.5296 11.0798C6.6639 11.2667 8.3655 14.1759 11.1684 15.3557C12.8158 16.0512 13.538 16.1707 14.0063 16.1707C14.1992 16.1707 14.3448 16.1508 14.4971 16.1419C15.0105 16.111 16.1694 15.5293 16.4222 14.8968C16.6749 14.2644 16.6918 13.7115 16.6253 13.6009C16.5587 13.4903 16.3759 13.4107 16.1006 13.2692C15.8252 13.1276 14.4746 12.42 14.2207 12.3204C14.1265 12.2775 14.0252 12.2516 13.9217 12.2441C13.8542 12.2476 13.7886 12.2671 13.7306 12.3011C13.6726 12.335 13.6239 12.3822 13.5888 12.4388C13.3631 12.7141 12.8452 13.3123 12.6714 13.4848C12.6334 13.5277 12.5867 13.5622 12.5342 13.5862C12.4817 13.6102 12.4247 13.6231 12.3667 13.6241C12.26 13.6195 12.1556 13.592 12.0609 13.5434C11.2428 13.2029 10.4969 12.7154 9.8617 12.1059C9.2683 11.5328 8.7648 10.8766 8.3677 10.1587C8.2143 9.88009 8.3677 9.73635 8.5077 9.60587C8.6476 9.47539 8.7977 9.29515 8.9421 9.13924C9.0606 9.00606 9.1594 8.85716 9.2355 8.69694C9.2749 8.62258 9.2948 8.53979 9.2934 8.45602C9.292 8.37225 9.2694 8.29013 9.2276 8.21705C9.161 8.07772 8.6634 6.7077 8.4298 6.15814C8.2402 5.6882 8.0146 5.67272 7.8171 5.65834C7.6546 5.64728 7.4684 5.64176 7.2822 5.63623H7.2585" fill="black"/>
</svg>
